<?xml version="1.0" encoding="UTF-8"?>
<svg width="1024px" height="1024px" viewBox="0 0 1024 1024" version="1.1" xmlns="http://www.w3.org/2000/svg" xmlns:xlink="http://www.w3.org/1999/xlink">
    <title>Frame</title>
    <g id="Frame" stroke="none" fill="none" fill-rule="nonzero">
        <path d="M638.604472,48 C651.526098,48 664.445002,48 677.366628,48.0762824 C688.249716,48.138881 699.130989,48.2640782 710.011356,48.5589268 C733.720811,49.2021503 757.635299,50.5974646 781.081659,54.8124385 C804.866414,59.0872894 827.002738,66.0656749 848.612871,77.064888 C869.853763,87.8763052 889.290182,102.003635 906.143727,118.85718 C922.996365,135.709818 937.123695,155.147144 947.935112,176.387129 C958.935232,197.997262 965.912711,220.133586 970.188469,243.919249 C974.402535,267.364701 975.79785,291.280096 976.441073,314.988644 C976.735922,325.869011 976.861119,336.750284 976.923718,347.633372 C977,360.554998 977,373.473902 977,386.395528 L977,638.604472 C977,651.526098 977,664.445002 976.923718,677.366628 C976.861119,688.249716 976.735922,699.130989 976.441073,710.011356 C975.79785,733.719904 974.402535,757.635299 970.188469,781.080751 C965.912711,804.866414 958.935232,827.002738 947.935112,848.612871 C937.123695,869.853763 922.996365,889.290182 906.143727,906.14282 C889.290182,922.996365 869.853763,937.123695 848.612871,947.935112 C827.002738,958.935232 804.866414,965.912711 781.081659,970.188469 C757.635299,974.402535 733.720811,975.79785 710.011356,976.441073 C699.130989,976.735922 688.249716,976.861119 677.366628,976.923718 C664.445002,977 651.526098,977 638.604472,977 L386.395528,977 C373.473902,977 360.554998,977 347.633372,976.923718 C336.750284,976.861119 325.869011,976.735922 314.988644,976.441073 C291.280096,975.79785 267.364701,974.402535 243.919249,970.188469 C220.133586,965.912711 197.997262,958.935232 176.387129,947.935112 C155.147144,937.123695 135.709818,922.996365 118.85718,906.14282 C102.003635,889.290182 87.8772124,869.853763 77.064888,848.612871 C66.0656749,827.002738 59.0872894,804.866414 54.8124385,781.080751 C50.5974646,757.635299 49.2021503,733.719904 48.559834,710.011356 C48.2640782,699.130989 48.138881,688.249716 48.0762824,677.366628 C48,664.445002 48,651.526098 48,638.604472 L48,386.395528 C48,373.473902 48,360.554998 48.0762824,347.633372 C48.138881,336.750284 48.2640782,325.869011 48.559834,314.988644 C49.2021503,291.280096 50.5974646,267.364701 54.8124385,243.919249 C59.0872894,220.133586 66.0656749,197.997262 77.064888,176.387129 C87.8772124,155.147144 102.003635,135.709818 118.85718,118.85718 C135.709818,102.003635 155.147144,87.8763052 176.387129,77.064888 C197.997262,66.0656749 220.133586,59.0872894 243.919249,54.8124385 C267.364701,50.5974646 291.280096,49.2021503 314.988644,48.5589268 C325.869011,48.2640782 336.750284,48.138881 347.633372,48.0762824 C360.554998,48 373.473902,48 386.395528,48 L638.604472,48 Z M647.771682,64.0009204 L377.432184,64.0009204 C377.295636,64.0009204 377.160373,64.0009204 377.026337,64.0009204 L374.733616,64.0009204 L374.55215,64.0009204 L373.315042,64.0009204 C373.199713,64.0009204 373.085027,64.0009204 372.970927,64.0009204 L371.958251,64.0009204 C371.847137,64.0009204 371.736434,64.0009204 371.626082,64.0009204 L370.967725,64.0009204 C370.858547,64.0009204 370.749605,64.0009204 370.640838,64.0009204 L369.989897,64.0009204 C369.881604,64.0009204 369.773372,64.0009204 369.665142,64.0009204 L369.015312,64.0009204 C368.364571,64.0009204 367.70969,64.0009204 367.038067,64.0009204 C359.954082,64.019974 353.701355,64.040739 347.725402,64.0760177 C335.317839,64.147385 325.154381,64.2893179 315.422572,64.5530416 C287.481118,65.3111057 266.588405,66.9935301 246.749484,70.5601293 C223.646106,74.7123575 203.163446,81.3894584 183.645169,91.32395 C163.916814,101.365929 145.845554,114.495379 130.170584,130.171193 C114.496585,145.844349 101.367474,163.915434 91.3241139,183.644847 C81.3894584,203.163446 74.7123575,223.646106 70.5599811,246.750309 C66.9932995,266.589687 65.310825,287.485502 64.5539262,315.423404 C64.2894957,325.151363 64.1474382,335.308581 64.0760036,347.727826 C64.040739,353.701355 64.019974,359.954082 64.0009204,367.038067 C64.0009204,367.70969 64.0009204,368.364571 64.0009204,369.015312 L64.0009204,369.665142 L64.0009204,369.827496 L64.0009204,370.640838 L64.0009204,370.804127 L64.0009204,371.626082 L64.0009204,371.791881 L64.0009204,372.970927 L64.0009204,373.142524 L64.0009204,374.371955 C64.0009204,374.491671 64.0009204,374.612205 64.0009204,374.733616 L64.0009204,377.026337 L64.0009204,377.228318 L64.0009204,647.567816 C64.0009204,647.704364 64.0009204,647.839627 64.0009204,647.973663 L64.0009204,650.266384 L64.0009204,650.44785 L64.0009204,651.684958 C64.0009204,651.800287 64.0009204,651.914973 64.0009204,652.029073 L64.0009204,653.041749 C64.0009204,653.152863 64.0009204,653.263566 64.0009204,653.373918 L64.0009204,654.032275 C64.0009204,654.141453 64.0009204,654.250395 64.0009204,654.359162 L64.0009204,655.010103 C64.0009204,655.118396 64.0009204,655.226628 64.0009204,655.334858 L64.0009204,655.984688 C64.0009204,656.635429 64.0009204,657.29031 64.0009204,657.961933 C64.019974,665.045918 64.040739,671.298645 64.0760177,677.274598 C64.1474382,689.691419 64.2894957,699.848637 64.5539654,709.57804 C65.310825,737.514498 66.9932995,758.410313 70.5601293,778.250516 C74.7123575,801.353894 81.3894584,821.836554 91.3238291,841.354593 C101.366973,861.084424 114.495695,879.154762 130.171193,894.829416 C145.845554,910.504621 163.916814,923.634071 183.645323,933.676128 C203.161446,943.610343 223.643184,950.287143 246.749718,954.44082 C266.588434,958.006615 287.482186,959.688923 315.422071,960.446945 C325.154381,960.710682 335.317839,960.852615 347.727826,960.923996 C353.701355,960.959261 359.954082,960.980026 367.038067,960.990482 C367.70969,961 368.364571,961 369.015312,961 L369.665142,961 L369.827496,961 L370.640838,961 L370.804127,961 L371.626082,961 L371.791881,961 L372.970927,961 L373.142524,961 L374.371955,961 C374.491671,961 374.612205,961 374.733616,961 L377.026337,961 L377.228318,961 L385.797289,961 L386.395528,961 L638.604472,961 L638.905321,961 L647.567816,961 C647.704364,961 647.839627,961 647.973663,961 L650.266384,961 L650.44785,961 L651.684958,961 C651.800287,961 651.914973,961 652.029073,961 L653.041749,961 C653.152863,961 653.263566,961 653.373918,961 L654.032275,961 C654.141453,961 654.250395,961 654.359162,961 L655.010103,961 C655.118396,961 655.226628,961 655.334858,961 L655.984688,961 C656.635429,961 657.29031,961 657.961933,960.990482 C665.045918,960.980026 671.298645,960.959261 677.274598,960.923982 C689.682161,960.852615 699.845619,960.710682 709.577445,960.446958 C737.517985,959.688948 758.411434,958.006664 778.250736,954.440901 C801.357019,950.287111 821.838735,943.610251 841.355077,933.675925 C861.082752,923.634721 879.153455,910.505675 894.830019,894.829111 C910.505782,879.153348 923.634789,861.082618 933.676128,841.354677 C943.610343,821.838554 950.287143,801.356816 954.44082,778.250282 C958.006615,758.411566 959.688923,737.517814 960.446945,709.577929 C960.710682,699.845619 960.852615,689.682161 960.923996,677.272174 C960.959261,671.298645 960.980026,665.045918 960.990482,657.961933 C961,657.29031 961,656.635429 961,655.984688 L961,655.334858 L961,655.172504 L961,654.359162 L961,654.195873 L961,653.373918 L961,653.208119 L961,652.029073 L961,651.857476 L961,650.628045 C961,650.508329 961,650.387795 961,650.266384 L961,647.973663 L961,647.771682 L961,639.202711 L961,638.604472 L961,386.395528 L961,386.094679 L961,377.432184 C961,377.295636 961,377.160373 961,377.026337 L961,374.733616 L961,374.55215 L961,373.315042 C961,373.199713 961,373.085027 961,372.970927 L961,371.958251 C961,371.847137 961,371.736434 961,371.626082 L961,370.967725 C961,370.858547 961,370.749605 961,370.640838 L961,369.989897 C961,369.881604 961,369.773372 961,369.665142 L961,369.015312 C961,368.364571 961,367.70969 960.990482,367.038067 C960.980026,359.954082 960.959261,353.701355 960.923982,347.725402 C960.852615,335.317839 960.710682,325.154381 960.446958,315.422572 C959.688923,287.482186 958.006615,266.588434 954.440883,246.750066 C950.287143,223.643184 943.610343,203.161446 933.67605,183.645169 C923.634288,163.91724 910.504892,145.845762 894.830019,130.170889 C879.153455,114.494325 861.082752,101.365279 841.355153,91.3241139 C821.836735,81.3895507 801.354097,74.7123893 778.250705,70.5600002 C758.411464,66.9934814 737.519053,65.3110814 709.577929,64.5530551 C699.845619,64.2893179 689.682161,64.147385 677.272174,64.0760036 C671.298645,64.040739 665.045918,64.019974 657.961933,64.0009204 C657.29031,64.0009204 656.635429,64.0009204 655.984688,64.0009204 L655.334858,64.0009204 L655.172504,64.0009204 L654.359162,64.0009204 L654.195873,64.0009204 L653.373918,64.0009204 L653.208119,64.0009204 L652.029073,64.0009204 L651.857476,64.0009204 L650.628045,64.0009204 C650.508329,64.0009204 650.387795,64.0009204 650.266384,64.0009204 L647.973663,64.0009204 L647.771682,64.0009204 Z" id="Icon-Shape" fill="color(display-p3 1.000 1.000 1.000)"></path>
    </g>
</svg>