<?xml version="1.0" encoding="UTF-8"?>
<!--Generator: Apple Native CoreSVG 326-->
<!DOCTYPE svg
PUBLIC "-//W3C//DTD SVG 1.1//EN"
       "http://www.w3.org/Graphics/SVG/1.1/DTD/svg11.dtd">
<svg version="1.1" xmlns="http://www.w3.org/2000/svg" xmlns:xlink="http://www.w3.org/1999/xlink" viewBox="0 0 16.5918 20.2441">
 <g>
  <rect height="20.2441" opacity="0" width="16.5918" x="0" y="0"/>
  <path d="M8.11523 20.2441C8.27148 20.2441 8.52539 20.1855 8.76953 20.0488C14.3262 16.9336 16.2305 15.6152 16.2305 12.0508L16.2305 4.58008C16.2305 3.55469 15.791 3.23242 14.9609 2.88086C13.8086 2.40234 10.0879 1.06445 8.93555 0.664062C8.67188 0.576172 8.38867 0.517578 8.11523 0.517578C7.8418 0.517578 7.55859 0.595703 7.30469 0.664062C6.15234 0.996094 2.42188 2.41211 1.26953 2.88086C0.449219 3.22266 0 3.55469 0 4.58008L0 12.0508C0 15.6152 1.91406 16.9238 7.46094 20.0488C7.71484 20.1855 7.95898 20.2441 8.11523 20.2441ZM8.11523 18.4766C7.95898 18.4766 7.80273 18.418 7.50977 18.2422C2.99805 15.5078 1.55273 14.707 1.55273 11.6895L1.55273 4.88281C1.55273 4.55078 1.61133 4.42383 1.88477 4.31641C3.36914 3.73047 6.25 2.76367 7.72461 2.17773C7.88086 2.10938 8.00781 2.08984 8.11523 2.08984C8.22266 2.08984 8.34961 2.11914 8.50586 2.17773C9.98047 2.76367 12.8418 3.79883 14.3555 4.31641C14.6191 4.41406 14.6777 4.55078 14.6777 4.88281L14.6777 11.6895C14.6777 14.707 13.2324 15.498 8.7207 18.2422C8.4375 18.418 8.27148 18.4766 8.11523 18.4766Z" fill="black" fill-opacity="0.85"/>
 </g>
</svg>
