<?xml version="1.0" encoding="UTF-8"?>
<svg width="1024px" height="1024px" viewBox="0 0 1024 1024" version="1.1" xmlns="http://www.w3.org/2000/svg" xmlns:xlink="http://www.w3.org/1999/xlink">
    <title>2 - Layer</title>
    <g id="Symbols" stroke="none" stroke-width="1" fill="none" fill-rule="evenodd">
        <g id="2---Layer" fill="#FFFFFF" fill-rule="nonzero">
            <g id="W" transform="translate(128, 77)">
                <path d="M230.11625,693.31125 C213.24375,693.31125 199.620729,689.351667 189.247187,681.4325 C178.873646,673.513333 170.5525,661.036042 164.28375,644.000625 L31.715625,275.11125 C24.4127083,254.527083 25.7213542,237.077292 35.6415625,222.761875 C45.5617708,208.446458 62.8185417,201.28875 87.411875,201.28875 C104.567708,201.28875 117.848958,205.280208 127.255625,213.263125 C136.662292,221.246042 144.128125,233.67375 149.653125,250.54625 L250.781875,554.176875 L219.23625,554.176875 L327.9725,250.355 C334.24125,233.4825 342.078958,221.086667 351.485625,213.1675 C360.892292,205.248333 373.061458,201.28875 387.993125,201.28875 C402.924792,201.28875 415.010729,205.248333 424.250937,213.1675 C433.491146,221.086667 440.95875,233.709167 446.65375,251.035 L548.706875,554.176875 L521.868125,554.176875 L625.461875,250.54625 C630.986875,233.836667 638.380104,221.449687 647.641563,213.385312 C656.903021,205.320937 669.888542,201.28875 686.598125,201.28875 C707.763125,201.28875 723.119792,208.446458 732.668125,222.761875 C742.216458,237.077292 743.193958,254.527083 735.600625,275.11125 L602.108125,644.680625 C596.129792,661.262708 588.067188,673.513333 577.920313,681.4325 C567.773438,689.351667 554.118542,693.31125 536.955625,693.31125 C520.083125,693.31125 506.500833,689.351667 496.20875,681.4325 C485.916667,673.513333 477.777917,661.036042 471.7925,644.000625 L376.06125,374.890625 L392.9975,374.890625 L295.035,644.680625 C288.759167,661.262708 280.661146,673.513333 270.740937,681.4325 C260.820729,689.351667 247.279167,693.31125 230.11625,693.31125 Z" id="Path"></path>
            </g>
        </g>
    </g>
</svg>